<?xml version="1.0" encoding="UTF-8" standalone="no"?>
<!-- Generator: Adobe Illustrator 19.0.0, SVG Export Plug-In . SVG Version: 6.00 Build 0)  -->

<svg
   xmlns:dc="http://purl.org/dc/elements/1.1/"
   xmlns:cc="http://creativecommons.org/ns#"
   xmlns:rdf="http://www.w3.org/1999/02/22-rdf-syntax-ns#"
   xmlns:svg="http://www.w3.org/2000/svg"
   xmlns="http://www.w3.org/2000/svg"
   xmlns:sodipodi="http://sodipodi.sourceforge.net/DTD/sodipodi-0.dtd"
   xmlns:inkscape="http://www.inkscape.org/namespaces/inkscape"
   version="1.1"
   id="Layer_1"
   x="0px"
   y="0px"
   viewBox="0 0 500 500"
   enable-background="new 0 0 500 500"
   xml:space="preserve"
   sodipodi:docname="icon _staging.svg"
   inkscape:export-filename="/home/rahul/Pictures/icon _staging.png"
   inkscape:export-xdpi="96"
   inkscape:export-ydpi="96"
   inkscape:version="0.92.3 (2405546, 2018-03-11)"><metadata
   id="metadata45"><rdf:RDF><cc:Work
       rdf:about=""><dc:format>image/svg+xml</dc:format><dc:type
         rdf:resource="http://purl.org/dc/dcmitype/StillImage" /></cc:Work></rdf:RDF></metadata><defs
   id="defs43" /><sodipodi:namedview
   pagecolor="#ffffff"
   bordercolor="#666666"
   borderopacity="1"
   objecttolerance="10"
   gridtolerance="10"
   guidetolerance="10"
   inkscape:pageopacity="0"
   inkscape:pageshadow="2"
   inkscape:window-width="1366"
   inkscape:window-height="713"
   id="namedview41"
   showgrid="false"
   inkscape:zoom="0.472"
   inkscape:cx="250"
   inkscape:cy="250"
   inkscape:window-x="0"
   inkscape:window-y="0"
   inkscape:window-maximized="1"
   inkscape:current-layer="Layer_1" />
<g
   id="XMLID_3_">
	<path
   id="XMLID_2_"
   fill="#ffd32a"
   d="M227,304.6c0-30.1-24.5-54.6-54.6-54.6H90.6C60.5,250,36,274.5,36,304.6v47.8   c0,28.9,22.7,52.6,51.2,54.4v-13.5c0-1.9,1.5-3.4,3.4-3.4s3.4,1.5,3.4,3.4v13.6v3.4v29.3l4.6-4.6c18.1-18.1,42.2-28.1,67.7-28.1   h6.1c30.1,0,54.6-24.5,54.6-54.6V304.6z" />
</g>
<g
   id="filled_outline_15_">
	<rect
   id="XMLID_20_"
   x="279.9"
   y="42.9"
   fill="#ffd32a"
   width="186.4"
   height="255.1" />
	<polygon
   id="XMLID_18_"
   fill="#ffd32a"
   points="436.9,327.5 250.5,327.5 250.5,72.3 387.8,72.3 436.9,121.4  " />
	<polygon
   id="XMLID_17_"
   fill="#ffd32a"
   points="436.9,121.4 387.8,121.4 387.8,72.3  " />
	<path
   id="XMLID_36_"
   fill="#1e272e"
   d="M245.6,72.3v255.1c0,2.7,2.2,4.9,4.9,4.9h186.4c2.7,0,4.9-2.2,4.9-4.9V121.4   c0-0.1-0.1-0.2-0.1-0.3c0-0.4-0.1-0.9-0.3-1.3c-0.1-0.2-0.1-0.3-0.2-0.5c-0.2-0.5-0.6-1-1-1.4l-49.1-49.1c-0.4-0.4-0.9-0.7-1.4-1   c-0.1-0.1-0.3-0.1-0.5-0.2c-0.4-0.1-0.8-0.2-1.3-0.3c-0.1,0-0.2,0-0.3,0H250.5C247.8,67.4,245.6,69.6,245.6,72.3z M425.1,116.5   h-32.3V84.2L425.1,116.5z M255.4,77.3h127.6v44.2c0,2.7,2.2,4.9,4.9,4.9H432v196.3H255.4V77.3z" />
	<path
   id="XMLID_13_"
   fill="#1e272e"
   d="M451.6,293.1v9.8h14.7c2.7,0,4.9-2.2,4.9-4.9V42.9c0-2.7-2.2-4.9-4.9-4.9H279.9   c-2.7,0-4.9,2.2-4.9,4.9v14.7h9.8v-9.8h176.6v245.3H451.6z" />
	<rect
   id="XMLID_12_"
   x="284.8"
   y="136.1"
   fill="#FFFFFF"
   width="117.8"
   height="9.8" />
	<rect
   id="XMLID_11_"
   x="284.8"
   y="106.7"
   fill="#FFFFFF"
   width="39.3"
   height="9.8" />
	<rect
   id="XMLID_10_"
   x="284.8"
   y="165.6"
   fill="#FFFFFF"
   width="78.5"
   height="9.8" />
	<rect
   id="XMLID_9_"
   x="373.1"
   y="165.6"
   fill="#FFFFFF"
   width="29.4"
   height="9.8" />
	<rect
   id="XMLID_8_"
   x="284.8"
   y="195"
   fill="#FFFFFF"
   width="117.8"
   height="9.8" />
	<rect
   id="XMLID_7_"
   x="284.8"
   y="253.9"
   fill="#FFFFFF"
   width="117.8"
   height="9.8" />
	<rect
   id="XMLID_6_"
   x="329"
   y="224.4"
   fill="#FFFFFF"
   width="73.6"
   height="9.8" />
	<rect
   id="XMLID_5_"
   x="284.8"
   y="224.4"
   fill="#FFFFFF"
   width="34.3"
   height="9.8" />
	<rect
   id="XMLID_4_"
   x="284.8"
   y="283.3"
   fill="#FFFFFF"
   width="19.6"
   height="9.8" />
	<rect
   id="XMLID_19_"
   x="314.3"
   y="283.3"
   fill="#FFFFFF"
   width="88.3"
   height="9.8" />
</g>
<path
   id="XMLID_26_"
   fill="#F3715B"
   d="M244.1,243.1" />
<path
   id="XMLID_31_"
   fill="#1e272e"
   d="M79,263.7c0,0-40,36.6,0,134c-4.8-2.1-21.1-10.2-28.5-28.6c-2.8-6.9-3.5-13.3-3.5-18  c-2.9-23.9-0.5-42.5,2-54.3c3.1-15,7-22.3,13.6-27.2C68.5,265.2,74.9,264,79,263.7z" />
<path
   id="XMLID_32_"
   fill="#1e272e"
   d="M100,428.7c0,0,31.3-24.3,41.3-25.3s-32.3,0-32.3,0L100,428.7z" />
<g
   id="XMLID_1_">
	<g
   id="XMLID_27_">
		<path
   id="XMLID_28_"
   fill="#010101"
   d="M273.8,239.7l-6.2-6.2c-4.3-4.3-11.9-4.3-16.2,0l-18,18c-2.1,2.1-3.3,5.1-3.3,8.1    s1.2,6,3.3,8.1l0.3,0.3l-5.1,5.1l-0.3-0.3c-4.3-4.3-11.9-4.3-16.2,0l-18,18c-2.1,2.1-3.3,5.1-3.3,8.1c0,3,1.2,6,3.3,8.1l6.2,6.2    c2.1,2.1,5.1,3.4,8.1,3.4s6-1.2,8.1-3.4l18-18c2.1-2.1,3.3-5.1,3.3-8.1c0-3-1.2-6-3.3-8.1l-0.3-0.3l5.1-5.1l0.3,0.3    c2.1,2.1,5.1,3.4,8.1,3.4c3,0,6-1.2,8.1-3.4l18-18c2.1-2.1,3.3-5.1,3.3-8.1C277.2,244.8,275.9,241.9,273.8,239.7z M229,289.8    l-18,18c-1.3,1.3-3.7,1.3-5.1,0l-6.2-6.2c-0.7-0.7-1-1.6-1-2.5c0-0.9,0.4-1.9,1-2.5l18-18c0.7-0.7,1.6-1,2.5-1    c0.9,0,1.9,0.4,2.5,1l0.3,0.3l-4.3,4.3c-0.8,0.8-0.8,2,0,2.8l2.8,2.8c0.8,0.8,2,0.8,2.8,0l4.3-4.3l0.3,0.3c0.7,0.7,1,1.6,1,2.5    S229.7,289.1,229,289.8z M268.3,250.5l-18,18c-1.3,1.3-3.7,1.3-5.1,0l-0.3-0.3l4.1-4.1c0.9-0.9,0.9-2.2,0-3.1l-2.4-2.4    c-0.9-0.9-2.2-0.9-3.1,0l-4.1,4.1l-0.3-0.3c-0.7-0.7-1.1-1.6-1.1-2.5c0-0.9,0.4-1.9,1-2.5l18-18c0.7-0.7,1.6-1,2.5-1    c0.9,0,1.9,0.4,2.5,1l6.2,6.2c0.7,0.7,1,1.6,1,2.5C269.3,248.9,268.9,249.8,268.3,250.5z" />
	</g>
</g>
<path
   id="XMLID_34_"
   fill="#ffd32a"
   d="M224.5,293c0,0,2.7,9.7,2.2,15.7s-6,1.1-6,1.1l-3.2-14.9C217.5,294.8,216.1,287.7,224.5,293z  " />
<path
   id="XMLID_30_"
   fill="#ffd32a"
   d="M219.8,300.4c0,0,2.7,9.7,2.2,15.7s-6,1.1-6,1.1l-3.2-14.9  C212.9,302.2,211.4,295.1,219.8,300.4z" />
<polygon
   id="XMLID_33_"
   fill="#1e272e"
   points="262,84.2 262,106.7 279.9,84.2 " />
<path
   id="XMLID_21_"
   fill="#1e272e"
   d="M127.7,53" />
<rect
   id="XMLID_29_"
   x="245.6"
   y="227.2"
   fill="#1e272e"
   width="9.8"
   height="24.8" />
<rect
   id="XMLID_22_"
   x="255.4"
   y="221.7"
   fill="#ffd32a"
   width="6.6"
   height="21.5" />
<polygon
   id="XMLID_35_"
   fill="#1e272e"
   points="214.4,304.4 217.4,315 215.4,314.3 212.8,306 " />
<polygon
   id="XMLID_38_"
   fill="#1e272e"
   points="260.4,230.3 261.9,230.7 261.9,241.4 260.4,241.7 " />
<g
   id="XMLID_37_">
</g>
<g
   id="XMLID_39_">
</g>
<g
   id="XMLID_40_">
</g>
<g
   id="XMLID_41_">
</g>
<g
   id="XMLID_42_">
</g>
<g
   id="XMLID_43_">
</g>
</svg>